<svg width="48" height="44" viewBox="0 0 48 44" fill="none" xmlns="http://www.w3.org/2000/svg">
<path fill-rule="evenodd" clip-rule="evenodd" d="M34.5732 19.2274L21.2278 25.9001C20.6647 26.1817 20.002 26.1817 19.4389 25.9001L1.66113 17.0112C0.983558 16.6725 0.555553 15.9799 0.555553 15.2224C0.555553 14.4648 0.983558 13.7723 1.66113 13.4335L19.4389 4.54464C20.002 4.26311 20.6647 4.26311 21.2278 4.54464L29.8158 8.83865C29.799 8.89342 29.7789 8.94734 29.7556 9.00013C29.654 9.27634 29.4717 9.5156 29.2323 9.68681C28.9929 9.85802 28.7076 9.95325 28.4133 9.96013H28.3333C27.8619 9.96013 27.4097 10.1474 27.0763 10.4808C26.7563 10.8008 26.5709 11.2302 26.5565 11.6811L20.3333 8.56956L7.02769 15.2224L20.3333 21.8752L28.9725 17.5556C28.9924 17.7129 29.0332 17.8672 29.0941 18.0142C29.1836 18.2301 29.3147 18.4261 29.48 18.5912C29.6451 18.7565 29.8412 18.8877 30.057 18.9771C30.2728 19.0666 30.5042 19.1126 30.7378 19.1126C30.9714 19.1126 31.2028 19.0666 31.4186 18.9771C31.6344 18.8877 31.8305 18.7565 31.9956 18.5912L32.0489 18.5379C32.2584 18.333 32.5245 18.1955 32.8128 18.1432C33.1012 18.091 33.3986 18.1263 33.6667 18.2446C33.9429 18.3462 34.1822 18.5285 34.3534 18.7679C34.4534 18.9078 34.5276 19.0634 34.5732 19.2274ZM3.44998 22.3224C2.46202 21.8284 1.26068 22.2289 0.766698 23.2168C0.27272 24.2048 0.673169 25.4061 1.66113 25.9001L19.4389 34.789C20.002 35.0705 20.6647 35.0705 21.2278 34.789L39.0055 25.9001C39.9935 25.4061 40.3939 24.2048 39.9 23.2168C39.406 22.2289 38.2046 21.8284 37.2167 22.3224L20.3333 30.7641L3.44998 22.3224ZM3.44998 31.2113C2.46202 30.7173 1.26068 31.1178 0.766698 32.1057C0.27272 33.0937 0.673169 34.295 1.66113 34.789L19.4389 43.6779C20.002 43.9594 20.6647 43.9594 21.2278 43.6779L39.0055 34.789C39.9935 34.295 40.3939 33.0937 39.9 32.1057C39.406 31.1178 38.2046 30.7173 37.2167 31.2113L20.3333 39.653L3.44998 31.2113Z" fill="#1E1E1E"/>
<path d="M36.3333 14.3334C37.8061 14.3334 39 13.1395 39 11.6667C39 10.1939 37.8061 9.00003 36.3333 9.00003C34.8606 9.00003 33.6667 10.1939 33.6667 11.6667C33.6667 13.1395 34.8606 14.3334 36.3333 14.3334Z" stroke="#1E1E1E" stroke-width="2.5" stroke-linecap="round" stroke-linejoin="round"/>
<path d="M42.9111 14.3334C42.7928 14.6015 42.7575 14.8989 42.8098 15.1872C42.862 15.4756 42.9995 15.7416 43.2044 15.9511L43.2578 16.0045C43.4231 16.1696 43.5542 16.3656 43.6436 16.5815C43.7331 16.7973 43.7792 17.0286 43.7792 17.2622C43.7792 17.4959 43.7331 17.7272 43.6436 17.943C43.5542 18.1588 43.4231 18.3549 43.2578 18.52C43.0927 18.6853 42.8966 18.8164 42.6808 18.9059C42.465 18.9954 42.2336 19.0414 42 19.0414C41.7664 19.0414 41.535 18.9954 41.3192 18.9059C41.1034 18.8164 40.9073 18.6853 40.7422 18.52L40.6889 18.4667C40.4794 18.2618 40.2133 18.1243 39.925 18.072C39.6366 18.0197 39.3392 18.055 39.0711 18.1734C38.8082 18.286 38.584 18.4731 38.426 18.7116C38.2681 18.9501 38.1833 19.2295 38.1822 19.5156V19.6667C38.1822 20.1382 37.9949 20.5904 37.6615 20.9238C37.3281 21.2572 36.8759 21.4445 36.4044 21.4445C35.9329 21.4445 35.4808 21.2572 35.1474 20.9238C34.814 20.5904 34.6267 20.1382 34.6267 19.6667V19.5867C34.6198 19.2925 34.5245 19.0071 34.3533 18.7678C34.1821 18.5284 33.9429 18.3461 33.6667 18.2445C33.3986 18.1261 33.1011 18.0908 32.8128 18.1431C32.5244 18.1954 32.2584 18.3329 32.0489 18.5378L31.9955 18.5911C31.8304 18.7564 31.6344 18.8876 31.4185 18.977C31.2027 19.0665 30.9714 19.1125 30.7378 19.1125C30.5041 19.1125 30.2728 19.0665 30.057 18.977C29.8412 18.8876 29.6451 18.7564 29.48 18.5911C29.3147 18.426 29.1836 18.23 29.0941 18.0141C29.0046 17.7983 28.9586 17.567 28.9586 17.3334C28.9586 17.0997 29.0046 16.8684 29.0941 16.6526C29.1836 16.4368 29.3147 16.2407 29.48 16.0756L29.5333 16.0222C29.7382 15.8128 29.8757 15.5467 29.928 15.2583C29.9803 14.97 29.945 14.6726 29.8267 14.4045C29.714 14.1416 29.5269 13.9173 29.2884 13.7594C29.0499 13.6015 28.7705 13.5167 28.4844 13.5156H28.3333C27.8618 13.5156 27.4096 13.3283 27.0762 12.9949C26.7428 12.6615 26.5555 12.2093 26.5555 11.7378C26.5555 11.2663 26.7428 10.8141 27.0762 10.4807C27.4096 10.1473 27.8618 9.96003 28.3333 9.96003H28.4133C28.7075 9.95314 28.9929 9.85791 29.2323 9.6867C29.4716 9.5155 29.654 9.27624 29.7555 9.00003C29.8739 8.73192 29.9092 8.43452 29.8569 8.14617C29.8046 7.85782 29.6671 7.59174 29.4622 7.38225L29.4089 7.32892C29.2436 7.16381 29.1125 6.96774 29.023 6.75192C28.9335 6.5361 28.8875 6.30477 28.8875 6.07114C28.8875 5.83751 28.9335 5.60617 29.023 5.39035C29.1125 5.17454 29.2436 4.97847 29.4089 4.81336C29.574 4.64807 29.7701 4.51694 29.9859 4.42748C30.2017 4.33801 30.433 4.29196 30.6667 4.29196C30.9003 4.29196 31.1316 4.33801 31.3474 4.42748C31.5633 4.51694 31.7593 4.64807 31.9244 4.81336L31.9778 4.86669C32.1873 5.07161 32.4533 5.20908 32.7417 5.26136C33.03 5.31365 33.3274 5.27835 33.5955 5.16003H33.6667C33.9296 5.04735 34.1538 4.86025 34.3117 4.62177C34.4696 4.38329 34.5544 4.10384 34.5555 3.8178V3.66669C34.5555 3.1952 34.7428 2.74301 35.0762 2.40962C35.4096 2.07622 35.8618 1.88892 36.3333 1.88892C36.8048 1.88892 37.257 2.07622 37.5904 2.40962C37.9238 2.74301 38.1111 3.1952 38.1111 3.66669V3.74669C38.1122 4.03273 38.197 4.31218 38.3549 4.55066C38.5129 4.78914 38.7371 4.97624 39 5.08892C39.2681 5.20724 39.5655 5.24254 39.8538 5.19025C40.1422 5.13797 40.4083 5.0005 40.6178 4.79558L40.6711 4.74225C40.8362 4.57696 41.0323 4.44583 41.2481 4.35637C41.4639 4.2669 41.6952 4.22085 41.9289 4.22085C42.1625 4.22085 42.3938 4.2669 42.6097 4.35637C42.8255 4.44583 43.0215 4.57696 43.1867 4.74225C43.3519 4.90736 43.4831 5.10343 43.5725 5.31924C43.662 5.53506 43.7081 5.7664 43.7081 6.00003C43.7081 6.23365 43.662 6.46499 43.5725 6.68081C43.4831 6.89663 43.3519 7.0927 43.1867 7.2578L43.1333 7.31114C42.9284 7.52063 42.7909 7.78671 42.7386 8.07506C42.6864 8.36341 42.7217 8.66081 42.84 8.92892V9.00003C42.9527 9.26293 43.1398 9.48715 43.3782 9.64509C43.6167 9.80302 43.8962 9.88777 44.1822 9.88892H44.3333C44.8048 9.88892 45.257 10.0762 45.5904 10.4096C45.9238 10.743 46.1111 11.1952 46.1111 11.6667C46.1111 12.1382 45.9238 12.5904 45.5904 12.9238C45.257 13.2572 44.8048 13.4445 44.3333 13.4445H44.2533C43.9673 13.4456 43.6878 13.5304 43.4494 13.6883C43.2109 13.8462 43.0238 14.0705 42.9111 14.3334Z" stroke="#1E1E1E" stroke-width="2.5" stroke-linecap="round" stroke-linejoin="round"/>
</svg>
