<svg width="100" height="115" viewBox="0 0 100 115" fill="none" xmlns="http://www.w3.org/2000/svg">
<path d="M42.2397 102.99C42.6715 105.266 43.4566 106.875 44.3595 108.092C44.438 108.21 44.5165 108.288 44.595 108.406C44.7913 108.642 44.9876 108.838 45.1839 109.034C45.3016 109.152 45.3801 109.23 45.4979 109.309C46.5578 110.251 47.6963 110.8 48.6777 111.232C51.1508 112.292 51.2686 115 51.2686 115L31.876 114.882C32.1116 111.664 32.1116 105.58 32.1116 105.58C36.155 104.363 38.0785 103.657 42.2397 102.99Z" fill="#FF3E6C"/>
<path d="M44.3595 108.092C44.438 108.21 44.5165 108.288 44.595 108.406C43.8099 108.759 43.0247 109.152 42.2396 109.505C42.0041 109.623 41.8078 109.27 42.0433 109.191C42.8285 108.799 43.6136 108.445 44.3595 108.092Z" fill="white"/>
<path d="M45.2231 108.995C45.3409 109.113 45.4194 109.191 45.5372 109.27C44.6736 109.701 43.7707 110.094 42.907 110.526C42.6715 110.643 42.4752 110.29 42.7108 110.212C43.5351 109.819 44.3595 109.427 45.2231 108.995Z" fill="white"/>
<path d="M44.1632 60.9147C46.5578 81.599 44.6343 107.032 44.6343 107.032L30.5806 107.935C30.5806 107.935 31.9938 68.4898 30.6591 61.5427C29.3244 54.6348 44.1632 60.9147 44.1632 60.9147Z" fill="#5F5FFF"/>
<path d="M15.3099 101.184C13.5041 102.636 12.4442 104.089 11.8161 105.462C11.7769 105.58 11.6983 105.698 11.6591 105.816C11.5413 106.09 11.4628 106.365 11.3843 106.64C11.345 106.758 11.3058 106.915 11.2665 107.032C10.9525 108.406 10.9917 109.701 11.0702 110.761C11.2665 113.43 8.95042 114.804 8.95042 114.804L0 97.6126C2.70868 95.7287 5.3781 94.0409 7.45868 91.9607C10.4029 94.9437 12.7975 97.8481 15.3099 101.184Z" fill="#FF3E6C"/>
<path d="M35.9586 52.8294L23.5537 53.6536C22.219 61.3072 21.6694 72.4147 16.0165 82.1877C13.4648 86.6229 9.06813 90.1553 4.47516 94.1195C7.02681 97.6126 11.1095 102.205 13.7004 105.698C14.5247 104.324 28.814 96.9062 33.1714 76.8106C35.5661 65.7816 35.9586 52.8294 35.9586 52.8294Z" fill="#5F5FFF"/>
<path d="M11.8161 105.462C11.7768 105.58 11.6983 105.698 11.6591 105.816C10.9525 105.305 10.2851 104.756 9.57849 104.246C9.38221 104.089 9.57849 103.736 9.77478 103.893C10.4814 104.442 11.1487 104.952 11.8161 105.462Z" fill="white"/>
<path d="M11.3843 106.64C11.3451 106.758 11.3058 106.915 11.2666 107.032C10.4814 106.444 9.69631 105.894 8.95044 105.305C8.75416 105.148 8.95044 104.795 9.14672 104.952C9.89259 105.541 10.6384 106.09 11.3843 106.64Z" fill="white"/>
<path d="M31.876 82.5017C31.8368 82.5017 31.7975 82.5017 31.7583 82.4625C31.6012 82.4232 31.5227 82.227 31.6012 82.07C34.3884 74.8089 35.6446 65.6638 35.6446 65.5461L35.6839 65.3106H35.9194C35.9587 65.3106 38.1178 65.1928 39.5702 64.8003C39.7273 64.7611 39.8843 64.8396 39.9235 64.9966C39.9628 65.1536 39.8843 65.3106 39.7273 65.3498C38.5103 65.6638 36.8223 65.8208 36.1942 65.8601C35.9979 67.3515 34.7025 75.6331 32.1508 82.2662C32.1116 82.4232 31.9938 82.5017 31.876 82.5017Z" fill="#030047"/>
<path d="M99.2397 0H53.6632V61.1894H99.2397V0Z" fill="#E4E4EF"/>
<path d="M81.6921 6.67235H63.0847V18.3686H81.6921V6.67235Z" fill="#F2F2F9"/>
<path d="M74.3512 45.9215L93.3512 35.0887C93.3512 35.0887 98.6508 44.7048 89.4256 49.6502C81.3781 53.9676 74.3512 45.9215 74.3512 45.9215Z" fill="#F2F2F9"/>
<path d="M84.5971 36.698C86.028 36.698 87.188 35.5382 87.188 34.1075C87.188 32.6768 86.028 31.5171 84.5971 31.5171C83.1662 31.5171 82.0062 32.6768 82.0062 34.1075C82.0062 35.5382 83.1662 36.698 84.5971 36.698Z" fill="#F2F2F9"/>
<path d="M83.1446 8.43856C83.0661 8.43856 82.9876 8.39931 82.9483 8.36006L80.0041 5.41638C79.8863 5.29863 79.8863 5.10239 80.0041 4.98464C80.1219 4.86689 80.3181 4.86689 80.4359 4.98464L83.3801 7.92832C83.4979 8.04607 83.4979 8.24232 83.3801 8.36006C83.3016 8.43856 83.2231 8.43856 83.1446 8.43856Z" fill="white"/>
<path d="M80.2397 8.43856C80.1612 8.43856 80.0827 8.39931 80.0434 8.36006C79.9256 8.24232 79.9256 8.04607 80.0434 7.92832L82.9876 4.98464C83.1054 4.86689 83.3017 4.86689 83.4194 4.98464C83.5372 5.10239 83.5372 5.29863 83.4194 5.41638L80.4752 8.36006C80.3967 8.43856 80.3182 8.43856 80.2397 8.43856Z" fill="white"/>
<path d="M69.1059 40.1469L63.3904 42.345L65.5889 48.0595L71.3044 45.8613L69.1059 40.1469Z" fill="#F2F2F9"/>
<path d="M99.2789 11.029H97.1983V29.0444H99.2789V11.029Z" fill="#F2F2F9"/>
<path d="M75.2933 11.343H66.4607C66.3037 11.343 66.1467 11.2253 66.1467 11.029C66.1467 10.8328 66.2644 10.715 66.4607 10.715H75.2933C75.4504 10.715 75.6074 10.8328 75.6074 11.029C75.6074 11.2253 75.4504 11.343 75.2933 11.343Z" fill="#030047"/>
<path d="M66.6178 22.3328L72.7025 14.5222L74.3513 24.0597L66.6178 22.3328Z" fill="white"/>
<path d="M69.9545 25.8259C69.9153 25.8259 69.9153 25.8259 69.876 25.8259C69.719 25.7867 69.6012 25.6297 69.6405 25.4727L70.5826 21.3123C70.6219 21.1553 70.7789 21.0375 70.9359 21.0768C71.0929 21.116 71.2107 21.273 71.1715 21.43L70.2293 25.5904C70.1901 25.7474 70.0723 25.8259 69.9545 25.8259Z" fill="white"/>
<path d="M59.5124 26.1792C62.1426 23.5495 63.7913 20.8021 65.4401 21.7833C65.4401 21.7833 67.4814 21.4693 67.3244 22.529C68.7376 21.3908 69.2479 20.0171 70.1901 20.5273C71.7603 21.3515 67.0888 27.2782 67.0888 27.2782H68.4236C68.4236 27.2782 69.4835 25.0017 70.5827 25.1587C71.6818 25.3157 70.5041 29.4761 67.5992 31.0853C65.283 32.3805 62.2211 34.1075 62.2211 34.1075L59.5124 26.1792Z" fill="#FFCC3E"/>
<path d="M59.5124 26.1792C57.3533 28.2594 54.0165 32.1058 50.8368 33.3618C46.8719 34.9317 39.8843 26.3754 34.938 26.8857L36.1942 35.4812C36.1942 35.4812 40.3554 44.0768 48.0496 45.7645C55.7438 47.4522 63.595 33.9898 63.6343 33.9505C62.6136 31.6348 61.3182 27.7099 59.5124 26.1792Z" fill="#030047"/>
<path d="M67.0104 22.4898C66.4608 23 66.0289 23.5495 65.6364 24.2167C65.5186 24.4522 65.8327 24.6485 65.9897 24.413C66.343 23.785 66.7748 23.2355 67.2852 22.7645C67.4814 22.6075 67.1674 22.3328 67.0104 22.4898Z" fill="#FF3E6C"/>
<path d="M64.7335 21.8618C64.3409 22.2935 63.9484 22.7253 63.5558 23.157C63.3988 23.3532 63.6736 23.628 63.8306 23.4317C64.2232 23 64.6157 22.5683 65.0083 22.1365C65.2046 21.9795 64.9298 21.7048 64.7335 21.8618Z" fill="#FF3E6C"/>
<path d="M31.4834 26.0614L30.8553 27.7491L38.2355 28.5734L38.5888 25.1587L31.4834 26.0614Z" fill="#030047"/>
<path d="M37.3326 27.9454C33.1715 24.7269 24.6136 30.3003 23.2397 35.0495C21.8657 39.7986 20.2169 62.8379 20.2169 62.8379L45.4587 62.4846C45.4587 62.4846 43.4173 37.6007 40.4731 33.401C37.5289 29.2014 38.7066 29.0444 37.3326 27.9454Z" fill="#030047"/>
<path d="M42.8285 41.3686C42.7107 41.3686 42.5537 41.2901 42.5537 41.1331C42.5537 41.0938 42.0434 38.7781 40.9835 35.1672C40.9442 35.0102 41.0227 34.8532 41.1797 34.814C41.3368 34.7747 41.4938 34.8532 41.5331 35.0102C42.6322 38.6604 43.1033 40.9761 43.1033 41.0153C43.1426 41.1723 43.0248 41.3293 42.8677 41.3686C42.8677 41.3686 42.8678 41.3686 42.8285 41.3686Z" fill="white"/>
<path d="M60.1405 56.3618H27.9504V69.2355H60.1405V56.3618Z" fill="#8FACFF"/>
<path d="M50.4443 59.9727H37.6075V62.8379H50.4443V59.9727Z" fill="#5F5FFF"/>
<path d="M55.1157 59.9727H52.25V62.8379H55.1157V59.9727Z" fill="#5F5FFF"/>
<path d="M58.6881 59.9727H55.8223V62.8379H58.6881V59.9727Z" fill="#5F5FFF"/>
<path d="M55.1157 63.8584H52.25V66.7235H55.1157V63.8584Z" fill="#5F5FFF"/>
<path d="M35.0558 63.8584H32.1901V66.7235H35.0558V63.8584Z" fill="#5F5FFF"/>
<path d="M39.0599 63.8584H36.1942V66.7235H39.0599V63.8584Z" fill="#5F5FFF"/>
<path d="M34.0351 25.0017C33.2893 27.0034 31.248 27.2782 29.874 26.6894C28.6178 26.1399 28.3823 24.5307 29.6385 23.4317C30.0703 23.0785 30.6591 22.7645 31.4835 22.5683C31.4835 22.5683 32.1116 22.6468 32.7397 22.9215C33.6033 23.2355 34.467 23.9027 34.0351 25.0017Z" fill="#FFCC3E"/>
<path d="M39.6488 18.7611C40.9442 21.6263 41.1013 24.727 37.3327 26.0614C34.781 26.9642 31.6405 25.8652 30.3451 23C29.0496 20.1348 30.0703 16.8771 32.6612 15.6997C35.2128 14.5222 38.3533 15.8959 39.6488 18.7611Z" fill="#FFCC3E"/>
<path d="M35.9784 20.8439C36.1951 20.8375 36.3656 20.6567 36.3592 20.44C36.3528 20.2233 36.1719 20.0529 35.9552 20.0593C35.7385 20.0657 35.568 20.2465 35.5744 20.4632C35.5808 20.6799 35.7617 20.8504 35.9784 20.8439Z" fill="#030047"/>
<path d="M39.2562 20.7628C38.7852 20.0171 38.2356 19.3498 37.5682 18.7611C37.3719 18.6041 37.0971 18.8788 37.2934 19.0358C37.9215 19.5853 38.4711 20.2526 38.9422 20.959C39.0599 21.1945 39.374 20.9983 39.2562 20.7628Z" fill="#030047"/>
<path d="M35.8802 16.4454C35.0166 17.3874 30.7376 19.5068 32.3472 21.6263C32.7397 22.1758 33.2108 22.372 32.779 22.9215C32.2687 23.3925 31.5228 22.5683 31.5228 22.5683C30.7377 22.7645 30.1096 23.0785 29.6777 23.4317C27.5972 21.6263 27.6364 19.5853 28.5786 18.8396C28.5786 18.8396 34.0744 10.9505 36.6261 13.0307C38.8637 14.8754 35.8802 16.4454 35.8802 16.4454Z" fill="#5F5FFF"/>
<path d="M32.3864 24.256C31.562 23.8635 30.5414 24.099 29.9525 24.8055C29.7955 25.0017 30.0703 25.2765 30.2273 25.0802C30.6984 24.4915 31.4835 24.256 32.1901 24.6092C32.4257 24.6877 32.622 24.3345 32.3864 24.256Z" fill="#030047"/>
<path d="M41.2583 53.3003C40.905 52.0836 35.7232 48.512 35.4484 47.2952C33.7604 48.2372 32.1116 48.8259 30.6199 48.3157C26.498 46.9027 24.967 39.3669 29.717 35.6382C34.467 31.9096 34.8988 26.8464 34.8988 26.8464C27.4008 27.1604 20.1777 31.6741 16.8409 40.7799C13.0723 51.1416 17.9794 56.401 21.8657 58.2457C25.7128 60.0512 36.5475 59.384 36.5475 59.384C36.6653 59.5802 37.6075 57.9318 37.8037 57.7748C38.8637 56.401 41.7686 55.0273 41.2583 53.3003Z" fill="#030047"/>
<path d="M41.2583 51.5341C41.219 51.5341 41.1405 51.5341 41.1012 51.4949C41.062 51.4556 37.2149 49.1399 28.6963 47.9232C27.5186 47.7662 26.655 47.1382 26.1446 46.157C25.1632 44.1945 25.6736 40.9369 27.5186 37.4044C27.5971 37.2474 27.7542 37.2082 27.9112 37.2867C28.0682 37.3652 28.1075 37.5222 28.0289 37.6792C26.2624 40.9761 25.7521 44.1553 26.655 45.9215C27.0868 46.7457 27.7934 47.256 28.7748 47.3737C37.4504 48.6297 41.2583 50.9061 41.4153 51.0239C41.5723 51.1024 41.6116 51.2986 41.4938 51.4164C41.4545 51.4949 41.376 51.5341 41.2583 51.5341Z" fill="white"/>
<path d="M27.4009 59.541C27.3616 59.541 27.3616 59.541 27.4009 59.541C25.3203 59.384 23.3967 59.07 21.8265 58.5597C21.6694 58.5205 21.5909 58.3242 21.6302 58.2065C21.6694 58.0495 21.8657 57.971 21.9835 58.0102C23.5145 58.5205 25.3988 58.8345 27.4009 58.9915C27.5579 58.9915 27.6756 59.1485 27.6756 59.3055C27.6756 59.4232 27.5579 59.541 27.4009 59.541Z" fill="white"/>
<path d="M41.6901 52.1229C39.6095 53.6536 38.5103 56.5973 37.0971 58.913C37.4112 59.6587 37.6074 59.6979 39.2954 59.9334C42.3574 60.3259 42.2789 62.4454 43.8099 62.4454C45.3409 62.4061 45.3802 61.5819 45.3802 61.5819C47.2252 61.5819 47.7748 60.2474 47.7748 60.2474C52.093 58.6382 44.3987 52.2406 41.6901 52.1229Z" fill="#FFCC3E"/>
<path d="M45.3409 60.9147C44.7521 59.8157 44.0062 58.7952 43.1033 57.9317C42.907 57.7747 42.6322 58.0495 42.8285 58.2065C43.7314 59.0307 44.438 60.0119 45.0268 61.1109C45.1446 61.3464 45.4587 61.1502 45.3409 60.9147Z" fill="#FF3E6C"/>
<path d="M47.7355 59.7372C47.3037 58.1672 46.3616 57.1075 45.1446 56.087C44.9483 55.93 44.6736 56.2048 44.8698 56.3618C46.0083 57.343 46.9112 58.3635 47.343 59.8549C47.4607 60.0904 47.814 59.9727 47.7355 59.7372Z" fill="#FF3E6C"/>
</svg>
