<svg width="48" height="48" viewBox="0 0 48 48" fill="none" xmlns="http://www.w3.org/2000/svg">
<path d="M16 42H32M24 34V42M8 6H40C42.2091 6 44 7.79086 44 10V30C44 32.2091 42.2091 34 40 34H8C5.79086 34 4 32.2091 4 30V10C4 7.79086 5.79086 6 8 6Z" stroke="#F5F5F5" stroke-width="4" stroke-linecap="round" stroke-linejoin="round"/>
<g clip-path="url(#clip0_19_734)">
<path d="M30.6667 20C30.6667 23.6819 27.6819 26.6667 24 26.6667M30.6667 20C30.6667 16.3181 27.6819 13.3334 24 13.3334M30.6667 20H17.3333M24 26.6667C20.3181 26.6667 17.3333 23.6819 17.3333 20M24 26.6667C25.6675 24.8411 26.6152 22.472 26.6667 20C26.6152 17.5281 25.6675 15.1589 24 13.3334M24 26.6667C22.3325 24.8411 21.3848 22.472 21.3333 20C21.3848 17.5281 22.3325 15.1589 24 13.3334M17.3333 20C17.3333 16.3181 20.3181 13.3334 24 13.3334" stroke="#F5F5F5" stroke-width="2" stroke-linecap="round" stroke-linejoin="round"/>
</g>
<defs>
<clipPath id="clip0_19_734">
<rect width="16" height="16" fill="white" transform="translate(16 12)"/>
</clipPath>
</defs>
</svg>
